<?xml version="1.0" standalone="no"?>
<!DOCTYPE svg PUBLIC "-//W3C//DTD SVG 20010904//EN"
 "http://www.w3.org/TR/2001/REC-SVG-20010904/DTD/svg10.dtd">
<svg version="1.0" xmlns="http://www.w3.org/2000/svg"
 width="700.000000pt" height="700.000000pt" viewBox="0 0 700.000000 700.000000"
 preserveAspectRatio="xMidYMid meet">
<metadata>
Created by potrace 1.14, written by Peter Selinger 2001-2017
</metadata>
<g transform="translate(0.000000,700.000000) scale(0.100000,-0.100000)"
fill="#000000" stroke="none">
<path d="M1380 6993 c-385 -42 -750 -230 -997 -512 -181 -207 -299 -448 -355
-724 l-23 -112 0 -2145 0 -2145 23 -112 c128 -631 595 -1092 1237 -1220 85
-17 214 -18 2235 -18 l2145 0 112 23 c631 128 1101 605 1219 1237 18 96 19
194 19 2240 l0 2140 -23 112 c-126 622 -583 1082 -1209 1215 l-108 23 -2120 1
c-1166 1 -2136 -1 -2155 -3z m2070 -1968 l0 -1255 -150 0 -150 0 0 107 0 106
-28 -39 c-108 -147 -256 -218 -452 -217 -192 1 -318 51 -445 178 -171 170
-255 427 -255 775 1 217 38 406 110 557 126 260 346 394 625 380 184 -10 329
-85 415 -214 l30 -46 0 461 0 462 150 0 150 0 0 -1255z m1640 561 c58 -13 134
-35 170 -48 l65 -23 3 -143 c1 -87 -1 -142 -7 -142 -5 0 -25 9 -43 19 -64 38
-218 91 -310 107 -125 22 -297 14 -387 -17 -78 -27 -140 -84 -159 -145 -15
-52 -16 -131 0 -175 37 -111 100 -138 548 -232 137 -29 233 -73 305 -139 120
-109 170 -295 130 -483 -48 -227 -224 -375 -505 -426 -95 -17 -318 -15 -430 5
-96 17 -292 65 -342 85 l-28 11 0 150 c0 82 2 150 5 150 3 0 23 -9 45 -20 209
-107 474 -164 651 -140 183 25 282 102 310 243 32 157 -79 263 -336 323 -60
15 -163 39 -228 54 -306 74 -437 217 -437 477 0 164 42 273 142 370 89 85 182
128 341 159 112 21 365 11 497 -20z m-76 -2146 c252 -64 422 -267 499 -594 19
-80 21 -121 21 -336 0 -216 -2 -256 -21 -337 -38 -160 -88 -268 -175 -379
-119 -152 -278 -225 -493 -225 -216 -1 -362 76 -472 247 -9 15 -12 -81 -12
-439 l-1 -458 -147 3 -148 3 -3 1248 -2 1247 150 0 150 0 0 -112 1 -113 22 30
c82 112 193 190 313 219 88 21 227 20 318 -4z m-1254 -2455 l0 -155 -995 0
-995 0 0 155 0 155 995 0 995 0 0 -155z"/>
<path d="M2630 5359 c-201 -39 -313 -223 -340 -557 -11 -141 0 -339 24 -445
41 -176 118 -289 236 -346 49 -23 67 -26 165 -26 105 0 114 2 177 33 78 38
125 88 174 185 56 110 75 206 81 411 6 200 -5 317 -43 437 -74 235 -252 351
-474 308z"/>
<path d="M4692 3195 c-75 -21 -109 -41 -162 -94 -123 -123 -188 -410 -162
-712 34 -372 163 -553 405 -567 252 -15 406 155 448 492 19 153 7 406 -25 529
-46 179 -129 294 -243 337 -75 28 -190 35 -261 15z"/>
</g>
</svg>
